<?xml version="1.0" encoding="UTF-8" standalone="no"?>
<!DOCTYPE svg PUBLIC "-//W3C//DTD SVG 1.1//EN"
 "http://www.w3.org/Graphics/SVG/1.1/DTD/svg11.dtd">
<!-- Generated by graphviz version 2.40.1 (20161225.0304)
 -->
<!-- Title: dependencies Pages: 1 -->
<svg width="1293pt" height="284pt"
 viewBox="0.00 0.00 1293.00 284.00" xmlns="http://www.w3.org/2000/svg" xmlns:xlink="http://www.w3.org/1999/xlink">
<g id="graph0" class="graph" transform="scale(1 1) rotate(0) translate(4 280)">
<title>dependencies</title>
<polygon fill="#ffffff" stroke="transparent" points="-4,4 -4,-280 1289,-280 1289,4 -4,4"/>
<text text-anchor="start" x="621.5091" y="-42.4" font-family="sans-serif" font-weight="bold" font-size="14.00" fill="#000000">Legend</text>
<polygon fill="#ffffb3" stroke="transparent" points="408.5,-10 408.5,-30 428.5,-30 428.5,-10 408.5,-10"/>
<text text-anchor="start" x="432.129" y="-15.4" font-family="sans-serif" font-size="14.00" fill="#000000"> &#160;Declarations</text>
<polygon fill="#8dd3c7" stroke="transparent" points="521.5,-10 521.5,-30 541.5,-30 541.5,-10 521.5,-10"/>
<text text-anchor="start" x="545.2251" y="-15.4" font-family="sans-serif" font-size="14.00" fill="#000000"> &#160;Module</text>
<polygon fill="#80b1d3" stroke="transparent" points="607.5,-10 607.5,-30 627.5,-30 627.5,-10 607.5,-10"/>
<text text-anchor="start" x="631.2812" y="-15.4" font-family="sans-serif" font-size="14.00" fill="#000000"> &#160;Bootstrap</text>
<polygon fill="#fdb462" stroke="transparent" points="704.5,-10 704.5,-30 724.5,-30 724.5,-10 704.5,-10"/>
<text text-anchor="start" x="728.1732" y="-15.4" font-family="sans-serif" font-size="14.00" fill="#000000"> &#160;Providers</text>
<polygon fill="#fb8072" stroke="transparent" points="800.5,-10 800.5,-30 820.5,-30 820.5,-10 800.5,-10"/>
<text text-anchor="start" x="824.2258" y="-15.4" font-family="sans-serif" font-size="14.00" fill="#000000"> &#160;Exports</text>
<g id="clust1" class="cluster">
<title>cluster_AppModule</title>
<polygon fill="none" stroke="#000000" stroke-dasharray="1,5" points="8,-70 8,-268 1277,-268 1277,-70 8,-70"/>
</g>
<g id="clust2" class="cluster">
<title>cluster_AppModule_declarations</title>
<polygon fill="none" stroke="#000000" points="16,-78 16,-130 1269,-130 1269,-78 16,-78"/>
</g>
<g id="clust13" class="cluster">
<title>cluster_AppModule_bootstrap</title>
<polygon fill="none" stroke="#000000" points="610,-208 610,-260 734,-260 734,-208 610,-208"/>
</g>
<!-- AppComponent -->
<g id="node1" class="node">
<title>AppComponent</title>
<polygon fill="#ffffb3" stroke="#000000" points="1260.9399,-122 1155.0601,-122 1155.0601,-86 1260.9399,-86 1260.9399,-122"/>
<text text-anchor="middle" x="1208" y="-99.8" font-family="Times,serif" font-size="14.00" fill="#000000">AppComponent</text>
</g>
<!-- AppModule -->
<g id="node9" class="node">
<title>AppModule</title>
<polygon fill="#8dd3c7" stroke="#000000" points="713.6571,-187 710.6571,-191 689.6571,-191 686.6571,-187 630.3429,-187 630.3429,-151 713.6571,-151 713.6571,-187"/>
<text text-anchor="middle" x="672" y="-164.8" font-family="Times,serif" font-size="14.00" fill="#000000">AppModule</text>
</g>
<!-- AppComponent&#45;&gt;AppModule -->
<g id="edge1" class="edge">
<title>AppComponent&#45;&gt;AppModule</title>
<path fill="none" stroke="#000000" d="M1208,-122.2921C1208,-144.2057 1208,-178 1208,-178 1208,-178 724.059,-178 724.059,-178"/>
<polygon fill="#000000" stroke="#000000" points="724.0591,-174.5001 714.059,-178 724.059,-181.5001 724.0591,-174.5001"/>
</g>
<!-- RecipesComponent -->
<g id="node2" class="node">
<title>RecipesComponent</title>
<polygon fill="#ffffb3" stroke="#000000" points="1136.6485,-122 1011.3515,-122 1011.3515,-86 1136.6485,-86 1136.6485,-122"/>
<text text-anchor="middle" x="1074" y="-99.8" font-family="Times,serif" font-size="14.00" fill="#000000">RecipesComponent</text>
</g>
<!-- RecipesComponent&#45;&gt;AppModule -->
<g id="edge2" class="edge">
<title>RecipesComponent&#45;&gt;AppModule</title>
<path fill="none" stroke="#000000" d="M1074,-122.1061C1074,-141.3391 1074,-169 1074,-169 1074,-169 723.8834,-169 723.8834,-169"/>
<polygon fill="#000000" stroke="#000000" points="723.8834,-165.5001 713.8834,-169 723.8834,-172.5001 723.8834,-165.5001"/>
</g>
<!-- RecipeListComponent -->
<g id="node3" class="node">
<title>RecipeListComponent</title>
<polygon fill="#ffffb3" stroke="#000000" points="992.9818,-122 851.0182,-122 851.0182,-86 992.9818,-86 992.9818,-122"/>
<text text-anchor="middle" x="922" y="-99.8" font-family="Times,serif" font-size="14.00" fill="#000000">RecipeListComponent</text>
</g>
<!-- RecipeListComponent&#45;&gt;AppModule -->
<g id="edge3" class="edge">
<title>RecipeListComponent&#45;&gt;AppModule</title>
<path fill="none" stroke="#000000" d="M922,-122.027C922,-138.3976 922,-160 922,-160 922,-160 723.8444,-160 723.8444,-160"/>
<polygon fill="#000000" stroke="#000000" points="723.8444,-156.5001 713.8444,-160 723.8443,-163.5001 723.8444,-156.5001"/>
</g>
<!-- RecipeDetailComponent -->
<g id="node4" class="node">
<title>RecipeDetailComponent</title>
<polygon fill="#ffffb3" stroke="#000000" points="833.4115,-122 678.5885,-122 678.5885,-86 833.4115,-86 833.4115,-122"/>
<text text-anchor="middle" x="756" y="-99.8" font-family="Times,serif" font-size="14.00" fill="#000000">RecipeDetailComponent</text>
</g>
<!-- RecipeDetailComponent&#45;&gt;AppModule -->
<g id="edge4" class="edge">
<title>RecipeDetailComponent&#45;&gt;AppModule</title>
<path fill="none" stroke="#000000" d="M696.3113,-122.1061C696.3113,-122.1061 696.3113,-140.991 696.3113,-140.991"/>
<polygon fill="#000000" stroke="#000000" points="692.8114,-140.9909 696.3113,-150.991 699.8114,-140.991 692.8114,-140.9909"/>
</g>
<!-- RecipeItemComponent -->
<g id="node5" class="node">
<title>RecipeItemComponent</title>
<polygon fill="#ffffb3" stroke="#000000" points="660.8599,-122 515.1401,-122 515.1401,-86 660.8599,-86 660.8599,-122"/>
<text text-anchor="middle" x="588" y="-99.8" font-family="Times,serif" font-size="14.00" fill="#000000">RecipeItemComponent</text>
</g>
<!-- RecipeItemComponent&#45;&gt;AppModule -->
<g id="edge5" class="edge">
<title>RecipeItemComponent&#45;&gt;AppModule</title>
<path fill="none" stroke="#000000" d="M645.5509,-122.1061C645.5509,-122.1061 645.5509,-140.991 645.5509,-140.991"/>
<polygon fill="#000000" stroke="#000000" points="642.0509,-140.9909 645.5509,-150.991 649.0509,-140.991 642.0509,-140.9909"/>
</g>
<!-- ShoppingListComponent -->
<g id="node6" class="node">
<title>ShoppingListComponent</title>
<polygon fill="#ffffb3" stroke="#000000" points="497.2841,-122 340.7159,-122 340.7159,-86 497.2841,-86 497.2841,-122"/>
<text text-anchor="middle" x="419" y="-99.8" font-family="Times,serif" font-size="14.00" fill="#000000">ShoppingListComponent</text>
</g>
<!-- ShoppingListComponent&#45;&gt;AppModule -->
<g id="edge6" class="edge">
<title>ShoppingListComponent&#45;&gt;AppModule</title>
<path fill="none" stroke="#000000" d="M419,-122.027C419,-138.3976 419,-160 419,-160 419,-160 620.2222,-160 620.2222,-160"/>
<polygon fill="#000000" stroke="#000000" points="620.2222,-163.5001 630.2222,-160 620.2222,-156.5001 620.2222,-163.5001"/>
</g>
<!-- ShoppingEditComponent -->
<g id="node7" class="node">
<title>ShoppingEditComponent</title>
<polygon fill="#ffffb3" stroke="#000000" points="322.3398,-122 163.6602,-122 163.6602,-86 322.3398,-86 322.3398,-122"/>
<text text-anchor="middle" x="243" y="-99.8" font-family="Times,serif" font-size="14.00" fill="#000000">ShoppingEditComponent</text>
</g>
<!-- ShoppingEditComponent&#45;&gt;AppModule -->
<g id="edge7" class="edge">
<title>ShoppingEditComponent&#45;&gt;AppModule</title>
<path fill="none" stroke="#000000" d="M243,-122.1061C243,-141.3391 243,-169 243,-169 243,-169 620.0846,-169 620.0846,-169"/>
<polygon fill="#000000" stroke="#000000" points="620.0846,-172.5001 630.0846,-169 620.0845,-165.5001 620.0846,-172.5001"/>
</g>
<!-- HeaderComponent -->
<g id="node8" class="node">
<title>HeaderComponent</title>
<polygon fill="#ffffb3" stroke="#000000" points="145.7437,-122 24.2563,-122 24.2563,-86 145.7437,-86 145.7437,-122"/>
<text text-anchor="middle" x="85" y="-99.8" font-family="Times,serif" font-size="14.00" fill="#000000">HeaderComponent</text>
</g>
<!-- HeaderComponent&#45;&gt;AppModule -->
<g id="edge8" class="edge">
<title>HeaderComponent&#45;&gt;AppModule</title>
<path fill="none" stroke="#000000" d="M85,-122.2921C85,-144.2057 85,-178 85,-178 85,-178 620.255,-178 620.255,-178"/>
<polygon fill="#000000" stroke="#000000" points="620.255,-181.5001 630.255,-178 620.255,-174.5001 620.255,-181.5001"/>
</g>
<!-- AppComponent  -->
<g id="node10" class="node">
<title>AppComponent </title>
<polygon fill="#80b1d3" stroke="#000000" points="726.439,-252 617.561,-252 617.561,-216 726.439,-216 726.439,-252"/>
<text text-anchor="middle" x="672" y="-229.8" font-family="Times,serif" font-size="14.00" fill="#000000">AppComponent </text>
</g>
<!-- AppModule&#45;&gt;AppComponent  -->
<g id="edge9" class="edge">
<title>AppModule&#45;&gt;AppComponent </title>
<path fill="none" stroke="#000000" stroke-dasharray="1,5" d="M672,-187.1061C672,-187.1061 672,-205.991 672,-205.991"/>
<polygon fill="#000000" stroke="#000000" points="668.5001,-205.9909 672,-215.991 675.5001,-205.991 668.5001,-205.9909"/>
</g>
</g>
</svg>
